<?xml version="1.0" encoding="utf-8"?>
<svg width="700pt" height="700pt" version="1.1" viewBox="0 0 700 700" xmlns="http://www.w3.org/2000/svg">
  <defs>
    <symbol id="o" overflow="visible">
      <path d="m29.312-1.75c-1.5117 0.78125-3.0898 1.3711-4.7344 1.7656-1.6367 0.40625-3.3398 0.60938-5.1094 0.60938-5.3125 0-9.5273-1.4844-12.641-4.4531-3.1055-2.9688-4.6562-7-4.6562-12.094s1.5508-9.125 4.6562-12.094c3.1133-2.9688 7.3281-4.4531 12.641-4.4531 1.7695 0 3.4727 0.19922 5.1094 0.59375 1.6445 0.39844 3.2227 0.99219 4.7344 1.7812v6.5938c-1.5312-1.0391-3.0391-1.8008-4.5156-2.2812-1.4805-0.48828-3.0391-0.73438-4.6719-0.73438-2.9375 0-5.2461 0.94531-6.9219 2.8281-1.6797 1.875-2.5156 4.4648-2.5156 7.7656 0 3.293 0.83594 5.8828 2.5156 7.7656 1.6758 1.875 3.9844 2.8125 6.9219 2.8125 1.6328 0 3.1914-0.23828 4.6719-0.71875 1.4766-0.48828 2.9844-1.2539 4.5156-2.2969z"/>
    </symbol>
    <symbol id="h" overflow="visible">
      <path d="m21.453-17.406c-0.67969-0.3125-1.3516-0.53906-2.0156-0.6875-0.65625-0.15625-1.3203-0.23438-1.9844-0.23438-1.9688 0-3.4844 0.63281-4.5469 1.8906-1.0547 1.2617-1.5781 3.0703-1.5781 5.4219v11.016h-7.6562v-23.922h7.6562v3.9219c0.97656-1.5625 2.1016-2.7031 3.375-3.4219 1.2812-0.71875 2.8125-1.0781 4.5938-1.0781 0.25 0 0.52344 0.011719 0.82812 0.03125 0.30078 0.023438 0.73438 0.070312 1.2969 0.14062z"/>
    </symbol>
    <symbol id="b" overflow="visible">
      <path d="m27.562-12.031v2.1875h-17.891c0.1875 1.793 0.83203 3.1367 1.9375 4.0312 1.1133 0.89844 2.6719 1.3438 4.6719 1.3438 1.6016 0 3.25-0.23438 4.9375-0.70312 1.6875-0.47656 3.4219-1.2031 5.2031-2.1719v5.8906c-1.8047 0.6875-3.6094 1.2031-5.4219 1.5469-1.8125 0.35156-3.6211 0.53125-5.4219 0.53125-4.3359 0-7.7031-1.0977-10.109-3.2969-2.3984-2.207-3.5938-5.2969-3.5938-9.2656 0-3.9062 1.1758-6.9727 3.5312-9.2031 2.3633-2.2383 5.6094-3.3594 9.7344-3.3594 3.7578 0 6.7695 1.1367 9.0312 3.4062 2.2578 2.2617 3.3906 5.2812 3.3906 9.0625zm-7.8594-2.5312c0-1.457-0.42969-2.6289-1.2812-3.5156-0.84375-0.89453-1.9492-1.3438-3.3125-1.3438-1.4922 0-2.6992 0.41797-3.625 1.25-0.91797 0.83594-1.4922 2.0391-1.7188 3.6094z"/>
    </symbol>
    <symbol id="a" overflow="visible">
      <path d="m14.391-10.766c-1.5938 0-2.793 0.27344-3.5938 0.8125-0.80469 0.54297-1.2031 1.3398-1.2031 2.3906 0 0.96875 0.32031 1.7305 0.96875 2.2812 0.64453 0.54297 1.5469 0.8125 2.7031 0.8125 1.4375 0 2.6445-0.51562 3.625-1.5469 0.98828-1.0312 1.4844-2.3203 1.4844-3.875v-0.875zm11.688-2.8906v13.656h-7.7031v-3.5469c-1.0312 1.4492-2.1875 2.5078-3.4688 3.1719s-2.8398 1-4.6719 1c-2.4805 0-4.4961-0.72266-6.0469-2.1719-1.543-1.4453-2.3125-3.3203-2.3125-5.625 0-2.8125 0.96094-4.8672 2.8906-6.1719 1.9375-1.3125 4.9688-1.9688 9.0938-1.9688h4.5156v-0.60938c0-1.207-0.48047-2.0938-1.4375-2.6562-0.94922-0.5625-2.4375-0.84375-4.4688-0.84375-1.6367 0-3.1562 0.16797-4.5625 0.5-1.4062 0.32422-2.7188 0.8125-3.9375 1.4688v-5.8281c1.6445-0.40625 3.2891-0.70703 4.9375-0.90625 1.6562-0.20703 3.3047-0.3125 4.9531-0.3125 4.3203 0 7.4375 0.85547 9.3438 2.5625 1.9141 1.6992 2.875 4.4609 2.875 8.2812z"/>
    </symbol>
    <symbol id="c" overflow="visible">
      <path d="m12.031-30.719v6.7969h7.875v5.4688h-7.875v10.141c0 1.1172 0.21875 1.8711 0.65625 2.2656 0.4375 0.38672 1.3125 0.57812 2.625 0.57812h3.9375v5.4688h-6.5625c-3.0234 0-5.1641-0.62891-6.4219-1.8906-1.2617-1.2578-1.8906-3.3984-1.8906-6.4219v-10.141h-3.7969v-5.4688h3.7969v-6.7969z"/>
    </symbol>
    <symbol id="g" overflow="visible">
      <path d="m19.953-20.422v-12.812h7.6875v33.234h-7.6875v-3.4531c-1.0547 1.4062-2.2148 2.4375-3.4844 3.0938-1.2734 0.65625-2.7422 0.98438-4.4062 0.98438-2.9492 0-5.3711-1.1719-7.2656-3.5156-1.8867-2.3438-2.8281-5.3594-2.8281-9.0469s0.94141-6.7031 2.8281-9.0469c1.8945-2.3438 4.3164-3.5156 7.2656-3.5156 1.6562 0 3.1172 0.33594 4.3906 1 1.2812 0.65625 2.4453 1.6836 3.5 3.0781zm-5.0469 15.484c1.6445 0 2.8945-0.59766 3.75-1.7969 0.86328-1.1953 1.2969-2.9297 1.2969-5.2031 0-2.2812-0.43359-4.0195-1.2969-5.2188-0.85547-1.1953-2.1055-1.7969-3.75-1.7969-1.625 0-2.8711 0.60156-3.7344 1.7969-0.85547 1.1992-1.2812 2.9375-1.2812 5.2188 0 2.2734 0.42578 4.0078 1.2812 5.2031 0.86328 1.1992 2.1094 1.7969 3.7344 1.7969z"/>
    </symbol>
    <symbol id="f" overflow="visible">
      <path d="m16.406-4.9375c1.6328 0 2.8828-0.59766 3.75-1.7969 0.86328-1.1953 1.2969-2.9297 1.2969-5.2031 0-2.2812-0.43359-4.0195-1.2969-5.2188-0.86719-1.1953-2.1172-1.7969-3.75-1.7969-1.6367 0-2.8906 0.60547-3.7656 1.8125-0.875 1.1992-1.3125 2.9336-1.3125 5.2031 0 2.2617 0.4375 3.9961 1.3125 5.2031 0.875 1.1992 2.1289 1.7969 3.7656 1.7969zm-5.0781-15.484c1.0508-1.3945 2.2188-2.4219 3.5-3.0781 1.2812-0.66406 2.7539-1 4.4219-1 2.9453 0 5.3672 1.1719 7.2656 3.5156 1.8945 2.3438 2.8438 5.3594 2.8438 9.0469s-0.94922 6.7031-2.8438 9.0469c-1.8984 2.3438-4.3203 3.5156-7.2656 3.5156-1.668 0-3.1406-0.33594-4.4219-1s-2.4492-1.6914-3.5-3.0781v3.4531h-7.6562v-33.234h7.6562z"/>
    </symbol>
    <symbol id="e" overflow="visible">
      <path d="m0.53125-23.922h7.6562l6.4219 16.234 5.4688-16.234h7.6562l-10.062 26.188c-1.0117 2.6641-2.1953 4.5234-3.5469 5.5781-1.3438 1.0625-3.1211 1.5938-5.3281 1.5938h-4.4219v-5.0156h2.3906c1.3008 0 2.2422-0.21094 2.8281-0.625 0.59375-0.40625 1.0547-1.1484 1.3906-2.2188l0.20312-0.65625z"/>
    </symbol>
    <symbol id="d" overflow="visible">
      <path d="m26.219-30.891v6.75c-1.7617-0.78125-3.4766-1.3672-5.1406-1.7656-1.668-0.40625-3.2422-0.60938-4.7188-0.60938-1.9609 0-3.4141 0.27344-4.3594 0.8125-0.9375 0.54297-1.4062 1.3867-1.4062 2.5312 0 0.85547 0.31641 1.5234 0.95312 2 0.63281 0.46875 1.7852 0.875 3.4531 1.2188l3.5 0.70312c3.5391 0.71875 6.0625 1.8047 7.5625 3.25 1.5 1.4492 2.25 3.5117 2.25 6.1875 0 3.5234-1.0469 6.1406-3.1406 7.8594-2.0859 1.7188-5.2734 2.5781-9.5625 2.5781-2.0234 0-4.0547-0.19531-6.0938-0.57812-2.0312-0.38281-4.0625-0.95703-6.0938-1.7188v-6.9375c2.0312 1.0859 3.9922 1.9023 5.8906 2.4531 1.9062 0.54297 3.7422 0.8125 5.5156 0.8125 1.7891 0 3.1602-0.29688 4.1094-0.89062 0.95703-0.60156 1.4375-1.457 1.4375-2.5625 0-1-0.32422-1.7695-0.96875-2.3125-0.64844-0.53906-1.9375-1.0234-3.875-1.4531l-3.1875-0.70312c-3.1875-0.6875-5.5234-1.7734-7-3.2656-1.4688-1.5-2.2031-3.5156-2.2031-6.0469 0-3.1758 1.0234-5.6172 3.0781-7.3281 2.0508-1.707 5-2.5625 8.8438-2.5625 1.75 0 3.5508 0.13281 5.4062 0.39062 1.8516 0.26172 3.7695 0.65625 5.75 1.1875z"/>
    </symbol>
    <symbol id="n" overflow="visible">
      <path d="m3.6719-23.922h7.6562v23.922h-7.6562zm0-9.3125h7.6562v6.2344h-7.6562z"/>
    </symbol>
    <symbol id="m" overflow="visible">
      <path d="m1.5312-23.922h7.4375l4.0156 16.484 4.0469-16.484h6.375l4.0156 16.312 4.0469-16.312h7.4375l-6.3125 23.922h-8.3438l-4.0469-16.453-4.0156 16.453h-8.3438z"/>
    </symbol>
    <symbol id="l" overflow="visible">
      <path d="m27.734-14.562v14.562h-7.7031v-11.156c0-2.0625-0.046875-3.4844-0.14062-4.2656-0.085937-0.78125-0.24219-1.3594-0.46875-1.7344-0.30469-0.5-0.71094-0.88281-1.2188-1.1562-0.51172-0.28125-1.0938-0.42188-1.75-0.42188-1.5938 0-2.8516 0.61719-3.7656 1.8438-0.90625 1.2305-1.3594 2.9375-1.3594 5.125v11.766h-7.6562v-23.922h7.6562v3.5c1.1445-1.3945 2.3633-2.4219 3.6562-3.0781 1.3008-0.66406 2.7383-1 4.3125-1 2.7578 0 4.8516 0.85156 6.2812 2.5469 1.4375 1.6875 2.1562 4.1523 2.1562 7.3906z"/>
    </symbol>
    <symbol id="k" overflow="visible">
      <path d="m23.375-5.8125h-12.859l-2.0312 5.8125h-8.2656l11.812-31.891h9.7969l11.812 31.891h-8.2656zm-10.812-5.9219h8.7344l-4.3594-12.688z"/>
    </symbol>
    <symbol id="j" overflow="visible">
      <path d="m4.0156-31.891h13.656c4.0508 0 7.1602 0.90234 9.3281 2.7031 2.1758 1.8047 3.2656 4.3711 3.2656 7.7031 0 3.3438-1.0898 5.918-3.2656 7.7188-2.168 1.8047-5.2773 2.7031-9.3281 2.7031h-5.4375v11.062h-8.2188zm8.2188 5.9531v8.9062h4.5625c1.5938 0 2.8203-0.38281 3.6875-1.1562 0.875-0.78125 1.3125-1.8789 1.3125-3.2969 0-1.4258-0.4375-2.5234-1.3125-3.2969-0.86719-0.76953-2.0938-1.1562-3.6875-1.1562z"/>
    </symbol>
    <symbol id="i" overflow="visible">
      <path d="m12.234-25.672v19.453h2.9531c3.3633 0 5.9297-0.83203 7.7031-2.5 1.7695-1.6641 2.6562-4.0859 2.6562-7.2656 0-3.1562-0.88672-5.5547-2.6562-7.2031-1.7617-1.6562-4.3281-2.4844-7.7031-2.4844zm-8.2188-6.2188h8.6719c4.8438 0 8.4453 0.34375 10.812 1.0312 2.375 0.6875 4.4102 1.8594 6.1094 3.5156 1.4883 1.4375 2.5977 3.1016 3.3281 4.9844 0.72656 1.875 1.0938 4 1.0938 6.375 0 2.4062-0.36719 4.5586-1.0938 6.4531-0.73047 1.8867-1.8398 3.5469-3.3281 4.9844-1.7109 1.6484-3.7617 2.8203-6.1562 3.5156-2.3984 0.6875-5.9844 1.0312-10.766 1.0312h-8.6719z"/>
    </symbol>
  </defs>
  <g transform="matrix(0.814381, 0, 0, 0.813511, 64.15448, 240.401825)" style="">
    <path d="m564.38 525h-87.5c-9.6641 0-17.5-9.6641-17.5-17.5v-280c0-9.6641 7.8359-17.5 17.5-17.5h87.5c9.6641 0 17.5 9.6641 17.5 17.5v280c0 9.6641-7.8359 17.5-17.5 17.5z" style="fill: rgb(255, 255, 255);"/>
    <path d="m389.38 525h-87.5c-9.6641 0-17.5-9.6641-17.5-17.5v-218.75c0-9.6641 7.8359-17.5 17.5-17.5h87.5c9.6641 0 17.5 9.6641 17.5 17.5v218.75c0 9.6641-7.8359 17.5-17.5 17.5z" style="fill: rgb(255, 255, 255);"/>
    <path d="m214.38 525h-87.5c-9.6641 0-17.5-9.6641-17.5-17.5v-157.5c0-9.6641 7.8359-17.5 17.5-17.5h87.5c9.6641 0 17.5 9.6641 17.5 17.5v157.5c0 9.6641-7.8359 17.5-17.5 17.5z" style="fill: rgb(255, 255, 255);"/>
    <path d="m441 154.72c-1.793 0-3.543 0.55469-5.0156 1.582l-119.95 84c-3.2188 2.2656-7.1094 3.375-11.039 3.1484-3.9297-0.22266-7.668-1.7734-10.605-4.3906l-17.352-15.383c-5.5469-4.9453-12.531-7.9883-19.93-8.6875-7.3984-0.69531-14.824 0.98828-21.195 4.8125l-79.828 47.555c-2.0859 1.1406-3.6172 3.082-4.2422 5.375-0.625 2.2891-0.28906 4.7383 0.92578 6.7812 1.2148 2.0391 3.2109 3.5 5.5234 4.0391 2.3164 0.54297 4.75 0.12109 6.7461-1.1719l79.781-47.531v0.003906c3.1875-1.9023 6.8984-2.7383 10.598-2.3906 3.6953 0.34766 7.1875 1.8594 9.9648 4.3242l17.352 15.383c5.875 5.2383 13.352 8.3398 21.215 8.7891 7.8594 0.45312 15.645-1.7695 22.078-6.3047l119.95-84h0.003907c3.125-2.1914 4.4727-6.1602 3.3203-9.8008-1.1484-3.6406-4.5273-6.1172-8.3438-6.1172z" style="fill: rgb(255, 255, 255);"/>
    <path d="m406.28 149.92c-4.6094-0.007813-8.4375 3.5586-8.75 8.1562-0.3125 4.5938 2.9922 8.6484 7.5586 9.2656l26.004 3.5977-3.5977 26.004h0.003906c-0.35938 2.3164 0.22656 4.6836 1.6289 6.5664 1.3984 1.8789 3.5 3.1211 5.8242 3.4414 2.3203 0.32031 4.6758-0.30859 6.5352-1.7383 1.8594-1.4336 3.0625-3.5508 3.3438-5.8828l5.9922-43.34-43.34-5.9922h0.003906c-0.40234-0.050781-0.80469-0.078125-1.207-0.078125z" style="fill: rgb(255, 255, 255);"/>
    <path d="m514.79 81.898v15.164c-3.6523-0.59766-6.207-3.9375-5.8281-7.6211-0.45313-3.6875 2.1445-7.0508 5.8281-7.543z" style="fill: rgb(255, 255, 255);"/>
    <path d="m532.29 120.48c0.37109 3.6953-2.168 7.0547-5.8281 7.6992v-15.164c3.6602 0.46875 6.2617 3.7969 5.8281 7.4648z" style="fill: rgb(255, 255, 255);"/>
    <path d="m520.62 35c-18.566 0-36.371 7.375-49.496 20.504-13.129 13.125-20.504 30.93-20.504 49.496s7.375 36.371 20.504 49.496c13.125 13.129 30.93 20.504 49.496 20.504s36.371-7.375 49.496-20.504c13.129-13.125 20.504-30.93 20.504-49.496-0.019531-18.559-7.4023-36.352-20.527-49.473-13.121-13.125-30.914-20.508-49.473-20.527zm5.8359 108.77v7.875h-11.672v-7.7773h-17.5v-15.531h17.5v-15.672c-5.8867-0.32031-11.418-2.9258-15.41-7.2656-3.9961-4.3359-6.1406-10.062-5.9766-15.957-0.20312-5.9062 1.9258-11.66 5.9258-16.012 4.0039-4.3516 9.5547-6.9531 15.461-7.2461v-7.875h11.672v7.7773h17.5v15.578h-17.5v15.637c5.9062 0.28906 11.461 2.8906 15.461 7.2422 4.0039 4.3516 6.1328 10.105 5.9258 16.016 0.16406 5.8906-1.9805 11.617-5.9766 15.953-3.9922 4.3359-9.5234 6.9414-15.41 7.2578z" style="fill: rgb(255, 255, 255);"/>
    <path d="m337.98 122.12 3.2969 6.8242h0.003906c-1.7773 0.52734-3.6562-0.42188-4.2891-2.1602-1.0039-1.5625-0.5625-3.6445 0.98828-4.6641z" style="fill: rgb(255, 255, 255);"/>
    <path d="m354.24 135.69c0.96875 1.582 0.55469 3.6445-0.95313 4.7344l-3.2891-6.8281c1.75-0.57812 3.6406 0.35156 4.2422 2.0938z" style="fill: rgb(255, 255, 255);"/>
    <path d="m330.41 99.75c-8.3633 4.0352-14.781 11.227-17.84 19.992-3.0586 8.7656-2.5078 18.387 1.5273 26.75 4.0391 8.3594 11.23 14.773 20 17.832 8.7656 3.0547 18.391 2.5039 26.75-1.5391 8.3594-4.0391 14.77-11.234 17.824-20.004 3.0508-8.7656 2.4961-18.391-1.5469-26.746-4.0391-8.3516-11.227-14.758-19.988-17.812-8.7578-3.0508-18.371-2.5039-26.727 1.5273zm26.25 47.715 1.75 3.5508-5.25 2.5391-1.6875-3.5-7.875 3.8047-3.3789-7 7.875-3.8047-3.4023-7.0508-0.003906-0.003906c-5.6523 2.1445-12.008-0.39062-14.637-5.8398-2.625-5.4453-0.65625-11.996 4.5391-15.09l-1.75-3.5 5.25-2.5391 1.6875 3.5 7.875-3.8047 3.3789 7-7.875 3.8047 3.3945 7v0.003906c5.6562-2.1445 12.012 0.39062 14.637 5.8398 2.6289 5.4453 0.66016 11.996-4.5391 15.09z" style="fill: rgb(255, 255, 255);"/>
    <path d="m174.33 175.63-3.5508 4.4453h-0.003906c-0.93359-1.0312-0.89844-2.6133 0.078124-3.6055 0.73047-1.1836 2.2812-1.5586 3.4766-0.83984z" style="fill: rgb(255, 255, 255);"/>
    <path d="m170.41 191.03c-0.75 1.1719-2.2852 1.5586-3.5 0.875l3.5508-4.4375h0.003906c0.95703 1.0039 0.93359 2.5898-0.054688 3.5625z" style="fill: rgb(255, 255, 255);"/>
    <path d="m187.02 163.27c-5.4375-4.3477-12.379-6.3594-19.301-5.5898-6.918 0.76953-13.25 4.2539-17.598 9.6914s-6.3594 12.379-5.5898 19.297c0.76953 6.9219 4.2578 13.254 9.6953 17.602s12.379 6.3555 19.297 5.5859c6.9219-0.76953 13.25-4.2578 17.598-9.6953s6.3594-12.375 5.5898-19.293c-0.76953-6.918-4.2578-13.25-9.6914-17.598zm-23.773 33.25-1.8477 2.3086-3.4219-2.7305 1.8281-2.2734-5.1289-4.1055 3.6406-4.5586 5.1289 4.1055 3.6758-4.5938c-3.25-3.1367-3.5781-8.2344-0.75781-11.762 2.8242-3.5273 7.8672-4.3281 11.645-1.8438l1.8359-2.3008 3.4219 2.7383-1.8281 2.2734 5.1289 4.1055-3.6406 4.5508-5.1289-4.0938-3.6758 4.5391c3.25 3.1367 3.5781 8.2344 0.75781 11.762-2.8242 3.5273-7.8672 4.3281-11.645 1.8438z" style="fill: rgb(255, 255, 255);"/>
  </g>
  <text style="fill: rgb(255, 255, 255); font-family: Arial, sans-serif; font-size: 23.7px; font-weight: 700; text-transform: capitalize; white-space: pre; text-decoration: underline solid rgb(0, 0, 0);" transform="matrix(11.83468, 0, 0, 9.25598, -3338.799072, -799.958618)" x="292.344" y="109.628">CPI</text>
</svg>